<svg xmlns="http://www.w3.org/2000/svg"  viewBox="0 0 64 64" width="512px" height="512px"><radialGradient id="eUlPWYTL_WiiChD1~kOVXa" cx="32" cy="32" r="30.017" gradientUnits="userSpaceOnUse"><stop offset="0" stop-color="#e9ce8e"/><stop offset="0" stop-color="#e9ce8e"/><stop offset=".241" stop-color="#f1dca9"/><stop offset=".521" stop-color="#f9e8c0"/><stop offset=".782" stop-color="#fdefcf"/><stop offset="1" stop-color="#fff2d4"/></radialGradient><path fill="url(#eUlPWYTL_WiiChD1~kOVXa)" d="M7,58c0,1.65-1.35,3-3,3c-1.65,0-3-1.35-3-3c0-1.65,1.35-3,3-3C5.65,55,7,56.35,7,58z M60,55	h-9.412c-1.139,0-2.202-0.721-2.497-1.821C47.645,51.516,48.904,50,50.5,50h8.369c1.451,0,2.789-0.972,3.071-2.395	C62.319,45.693,60.848,44,59,44h-7.412c-1.139,0-2.202-0.721-2.497-1.821C48.645,40.516,49.904,39,51.5,39h6.369	c1.451,0,2.789-0.972,3.071-2.395C61.319,34.693,59.848,33,58,33h-3.5c-0.828,0-1.5-0.672-1.5-1.5v0c0-0.828,0.672-1.5,1.5-1.5	l4.369,0c1.451,0,2.789-0.972,3.071-2.395C62.319,25.693,60.848,24,59,24h-2.412c-1.139,0-2.202-0.721-2.497-1.821	C53.645,20.516,54.904,19,56.5,19h0.369c1.451,0,2.789-0.972,3.071-2.395C60.319,14.693,58.848,13,57,13l-5.878,0	c-0.997,0-1.927-0.675-2.093-1.658C48.819,10.093,49.788,9,51,9l8.869,0c1.451,0,2.789-0.972,3.071-2.395	C63.319,4.693,61.848,3,60,3L7.131,3C5.68,3,4.343,3.972,4.06,5.395C3.681,7.307,5.152,9,7,9h0.412c1.139,0,2.202,0.721,2.497,1.821	C10.355,12.484,9.096,14,7.5,14l-0.369,0c-1.451,0-2.789,0.972-3.071,2.395C3.681,18.307,5.152,20,7,20h16v13H6.131	c-1.451,0-2.789,0.972-3.071,2.395C2.681,37.307,4.152,39,6,39h0.412c1.139,0,2.202,0.721,2.497,1.821C9.355,42.484,8.096,44,6.5,44	H4.131c-1.451,0-2.789,0.972-3.071,2.395C0.681,48.307,2.152,50,4,50h26.412c1.139,0,2.202,0.721,2.497,1.821	C33.355,53.484,32.096,55,30.5,55H12.131c-1.451,0-2.789,0.972-3.071,2.395C8.681,59.307,10.152,61,12,61h47.869	c1.451,0,2.789-0.972,3.071-2.395C63.319,56.693,61.848,55,60,55z"/><linearGradient id="eUlPWYTL_WiiChD1~kOVXb" x1="32.5" x2="32.5" y1="53" y2="4.454" gradientUnits="userSpaceOnUse"><stop offset="0" stop-color="#155cde"/><stop offset=".278" stop-color="#1f7fe5"/><stop offset=".569" stop-color="#279ceb"/><stop offset=".82" stop-color="#2cafef"/><stop offset="1" stop-color="#2eb5f0"/></linearGradient><path fill="url(#eUlPWYTL_WiiChD1~kOVXb)" d="M34.5,10H15c-0.552,0-1,0.448-1,1v41c0,0.552,0.448,1,1,1h10c1.657,0,3-1.343,3-3v-6	c0-0.552,0.448-1,1-1h4h1.068c9.249,0,17.103-7.568,16.929-16.815C50.829,17.218,43.507,10,34.5,10z"/></svg>